# xmcd CD database file
#
# Track frame offsets:
#	150
#	24507
#	43764
#	66086
#	82080
#	102480
#	119262
#	138425
#	165650
#	187457
#	214045
#	251095
#	277495
#	298945
#	317545
#
# Disc length: 4684 seconds
#
# Revision: 0
# Processed by: cddbd v1.5.2PL0 Copyright (c) Steve Scherf et al.
# Submitted via: CDex 1.70beta2
#
DISCID=f4124a0f
DTITLE=Junior Mance Trio - Junior's Blues - Happy Tieme - Big Chief! [CD2)
DYEAR=1900
DGENRE=Jazz
TTITLE0=The Simple Waltz
TTITLE1=Big Chief!
TTITLE2=Love For Sale
TTITLE3=The Seasons
TTITLE4=Fillet Of The Soul
TTITLE5=Swish
TTITLE6=Summertime
TTITLE7=Ruby, My Dear
TTITLE8=Little Miss Gail
TTITLE9=Atlanta Blues
TTITLE10=Summertime (alternate track)
TTITLE11=Ruby, My Dear (alternate track)
TTITLE12=Love For Sale (alternate track)
TTITLE13=Girl Of My Dream
TTITLE14=Atlanta Blues (alternate track)
EXTD=
EXTT0=
EXTT1=
EXTT2=
EXTT3=
EXTT4=
EXTT5=
EXTT6=
EXTT7=
EXTT8=
EXTT9=
EXTT10=
EXTT11=
EXTT12=
EXTT13=
EXTT14=
PLAYORDER=
